<?xml version="1.0" standalone="no"?>
<!DOCTYPE svg PUBLIC "-//W3C//DTD SVG 20010904//EN"
 "http://www.w3.org/TR/2001/REC-SVG-20010904/DTD/svg10.dtd">
<svg version="1.0" xmlns="http://www.w3.org/2000/svg"
 width="150.000000pt" height="150.000000pt" viewBox="0 0 150.000000 150.000000"
 preserveAspectRatio="xMidYMid meet">

<g transform="translate(0.000000,200.000000) scale(0.100000,-0.100000)"
fill="#0d6efe" stroke="none">
<path d="M900 1514 c-77 -12 -95 -19 -130 -51 -33 -29 -60 -81 -60 -115 0 -5
20 -8 44 -8 40 0 44 2 49 30 9 45 59 72 121 67 66 -6 96 -39 96 -103 0 -57
-10 -75 -75 -144 -60 -64 -82 -102 -91 -159 l-7 -41 47 0 c42 0 46 2 46 24 0
42 18 76 74 134 72 77 90 114 91 187 0 71 -24 119 -74 149 -33 19 -100 34
-131 30z"/>
<path d="M543 1011 c-49 -23 -73 -55 -80 -112 l-6 -42 29 7 c16 4 29 8 30 9 0
1 5 18 10 37 18 67 115 89 151 34 22 -35 18 -86 -12 -151 -24 -51 -37 -135
-22 -149 2 -3 16 0 31 5 22 9 26 16 26 51 0 24 11 62 26 91 46 91 27 196 -41
227 -38 17 -94 14 -142 -7z"/>
<path d="M1114 903 c-12 -2 -30 -13 -40 -24 -18 -20 -18 -21 0 -35 17 -12 22
-12 36 1 37 33 110 5 110 -41 0 -43 -19 -65 -85 -94 -72 -32 -99 -65 -70 -87
16 -11 20 -10 33 8 8 12 38 32 66 44 64 28 95 62 103 108 12 74 -69 137 -153
120z"/>
<path d="M862 868 c-19 -19 -15 -66 8 -78 47 -25 100 26 73 69 -13 20 -64 26
-81 9z"/>
<path d="M684 556 c-11 -28 1 -51 25 -51 28 0 47 25 38 49 -8 20 -56 21 -63 2z"/>
<path d="M1004 545 c-4 -9 -2 -21 4 -27 16 -16 47 -5 47 17 0 26 -42 34 -51
10z"/>
</g>
</svg>
